<svg xmlns="http://www.w3.org/2000/svg" width="1200" height="1200" viewBox="0 0 1200 1200" role="img">
  
  <defs>
    <radialGradient id="gkafter-dark" cx="50%" cy="40%" r="62%">
      <stop offset="0%" stop-color="#6A4CFF" stop-opacity="0.20"/>
      <stop offset="55%" stop-color="#6A4CFF" stop-opacity="0.05"/>
      <stop offset="100%" stop-color="#111111" stop-opacity="0"/>
    </radialGradient>
    <linearGradient id="bkafter-dark" x1="0" y1="0" x2="0" y2="1">
      <stop offset="0%" stop-color="#FFFFFF" stop-opacity="0.07"/>
      <stop offset="100%" stop-color="#FFFFFF" stop-opacity="0.02"/>
    </linearGradient>
  </defs>
  <rect width="1200" height="1200" fill="#111111"/>
  <rect width="1200" height="1200" fill="url(#gkafter-dark)"/>
  <line x1="0" y1="670" x2="1200" y2="670" stroke="#6A4CFF" stroke-opacity="0.18"/>
  <g>
      <rect x="444" y="436" width="24" height="22" rx="4" fill="#6A4CFF" fill-opacity="0.30"/>
      <rect x="430" y="470" width="52" height="200" rx="10" fill="url(#bkafter-dark)" stroke="#6A4CFF" stroke-opacity="0.36"/>
      <rect x="440" y="590" width="32" height="66" rx="4" fill="#6A4CFF" fill-opacity="0.16"/>
    </g><g>
      <rect x="540" y="454" width="24" height="22" rx="4" fill="#6A4CFF" fill-opacity="0.30"/>
      <rect x="526" y="488" width="52" height="200" rx="10" fill="url(#bkafter-dark)" stroke="#6A4CFF" stroke-opacity="0.36"/>
      <rect x="536" y="608" width="32" height="66" rx="4" fill="#6A4CFF" fill-opacity="0.16"/>
    </g><g>
      <rect x="636" y="436" width="24" height="22" rx="4" fill="#6A4CFF" fill-opacity="0.30"/>
      <rect x="622" y="470" width="52" height="200" rx="10" fill="url(#bkafter-dark)" stroke="#6A4CFF" stroke-opacity="0.36"/>
      <rect x="632" y="590" width="32" height="66" rx="4" fill="#6A4CFF" fill-opacity="0.16"/>
    </g><g>
      <rect x="732" y="454" width="24" height="22" rx="4" fill="#6A4CFF" fill-opacity="0.30"/>
      <rect x="718" y="488" width="52" height="200" rx="10" fill="url(#bkafter-dark)" stroke="#6A4CFF" stroke-opacity="0.36"/>
      <rect x="728" y="608" width="32" height="66" rx="4" fill="#6A4CFF" fill-opacity="0.16"/>
    </g>
</svg>