<svg xmlns="http://www.w3.org/2000/svg" width="1200" height="1200" viewBox="0 0 1200 1200" role="img">
  
  <defs>
    <radialGradient id="gkrare-air" cx="50%" cy="40%" r="62%">
      <stop offset="0%" stop-color="#D4AF37" stop-opacity="0.20"/>
      <stop offset="55%" stop-color="#D4AF37" stop-opacity="0.05"/>
      <stop offset="100%" stop-color="#111111" stop-opacity="0"/>
    </radialGradient>
    <linearGradient id="bkrare-air" x1="0" y1="0" x2="0" y2="1">
      <stop offset="0%" stop-color="#FFFFFF" stop-opacity="0.07"/>
      <stop offset="100%" stop-color="#FFFFFF" stop-opacity="0.02"/>
    </linearGradient>
  </defs>
  <rect width="1200" height="1200" fill="#111111"/>
  <rect width="1200" height="1200" fill="url(#gkrare-air)"/>
  <line x1="0" y1="670" x2="1200" y2="670" stroke="#D4AF37" stroke-opacity="0.18"/>
  <g>
      <rect x="492" y="436" width="24" height="22" rx="4" fill="#D4AF37" fill-opacity="0.30"/>
      <rect x="478" y="470" width="52" height="200" rx="10" fill="url(#bkrare-air)" stroke="#D4AF37" stroke-opacity="0.36"/>
      <rect x="488" y="590" width="32" height="66" rx="4" fill="#D4AF37" fill-opacity="0.16"/>
    </g><g>
      <rect x="588" y="454" width="24" height="22" rx="4" fill="#D4AF37" fill-opacity="0.30"/>
      <rect x="574" y="488" width="52" height="200" rx="10" fill="url(#bkrare-air)" stroke="#D4AF37" stroke-opacity="0.36"/>
      <rect x="584" y="608" width="32" height="66" rx="4" fill="#D4AF37" fill-opacity="0.16"/>
    </g><g>
      <rect x="684" y="436" width="24" height="22" rx="4" fill="#D4AF37" fill-opacity="0.30"/>
      <rect x="670" y="470" width="52" height="200" rx="10" fill="url(#bkrare-air)" stroke="#D4AF37" stroke-opacity="0.36"/>
      <rect x="680" y="590" width="32" height="66" rx="4" fill="#D4AF37" fill-opacity="0.16"/>
    </g>
</svg>