<svg xmlns="http://www.w3.org/2000/svg" width="1200" height="1200" viewBox="0 0 1200 1200" role="img">
  
  <defs>
    <radialGradient id="gkthe-initiation" cx="50%" cy="40%" r="62%">
      <stop offset="0%" stop-color="#00C27A" stop-opacity="0.20"/>
      <stop offset="55%" stop-color="#00C27A" stop-opacity="0.05"/>
      <stop offset="100%" stop-color="#111111" stop-opacity="0"/>
    </radialGradient>
    <linearGradient id="bkthe-initiation" x1="0" y1="0" x2="0" y2="1">
      <stop offset="0%" stop-color="#FFFFFF" stop-opacity="0.07"/>
      <stop offset="100%" stop-color="#FFFFFF" stop-opacity="0.02"/>
    </linearGradient>
  </defs>
  <rect width="1200" height="1200" fill="#111111"/>
  <rect width="1200" height="1200" fill="url(#gkthe-initiation)"/>
  <line x1="0" y1="670" x2="1200" y2="670" stroke="#00C27A" stroke-opacity="0.18"/>
  <g>
      <rect x="396" y="436" width="24" height="22" rx="4" fill="#00C27A" fill-opacity="0.30"/>
      <rect x="382" y="470" width="52" height="200" rx="10" fill="url(#bkthe-initiation)" stroke="#00C27A" stroke-opacity="0.36"/>
      <rect x="392" y="590" width="32" height="66" rx="4" fill="#00C27A" fill-opacity="0.16"/>
    </g><g>
      <rect x="492" y="454" width="24" height="22" rx="4" fill="#00C27A" fill-opacity="0.30"/>
      <rect x="478" y="488" width="52" height="200" rx="10" fill="url(#bkthe-initiation)" stroke="#00C27A" stroke-opacity="0.36"/>
      <rect x="488" y="608" width="32" height="66" rx="4" fill="#00C27A" fill-opacity="0.16"/>
    </g><g>
      <rect x="588" y="436" width="24" height="22" rx="4" fill="#00C27A" fill-opacity="0.30"/>
      <rect x="574" y="470" width="52" height="200" rx="10" fill="url(#bkthe-initiation)" stroke="#00C27A" stroke-opacity="0.36"/>
      <rect x="584" y="590" width="32" height="66" rx="4" fill="#00C27A" fill-opacity="0.16"/>
    </g><g>
      <rect x="684" y="454" width="24" height="22" rx="4" fill="#00C27A" fill-opacity="0.30"/>
      <rect x="670" y="488" width="52" height="200" rx="10" fill="url(#bkthe-initiation)" stroke="#00C27A" stroke-opacity="0.36"/>
      <rect x="680" y="608" width="32" height="66" rx="4" fill="#00C27A" fill-opacity="0.16"/>
    </g><g>
      <rect x="780" y="436" width="24" height="22" rx="4" fill="#00C27A" fill-opacity="0.30"/>
      <rect x="766" y="470" width="52" height="200" rx="10" fill="url(#bkthe-initiation)" stroke="#00C27A" stroke-opacity="0.36"/>
      <rect x="776" y="590" width="32" height="66" rx="4" fill="#00C27A" fill-opacity="0.16"/>
    </g>
</svg>